<svg width="128" height="128" viewBox="0 0 128 128" xmlns="http://www.w3.org/2000/svg">
  <!-- 背景圆角矩形 -->
  <rect width="128" height="128" rx="24" fill="#18a0fb"/>
  
  <!-- 组件图标 - 多个方块表示变体 -->
  <g transform="translate(24, 24)">
    <!-- 主组件 -->
    <rect x="0" y="0" width="32" height="32" rx="4" fill="white" opacity="0.9"/>
    <rect x="4" y="4" width="24" height="24" rx="2" fill="none" stroke="white" stroke-width="2" opacity="0.6"/>
    
    <!-- 变体1 -->
    <rect x="40" y="0" width="32" height="32" rx="4" fill="white" opacity="0.7"/>
    <rect x="44" y="4" width="24" height="24" rx="2" fill="none" stroke="white" stroke-width="2" opacity="0.5"/>
    
    <!-- 变体2 -->
    <rect x="0" y="40" width="32" height="32" rx="4" fill="white" opacity="0.7"/>
    <rect x="4" y="44" width="24" height="24" rx="2" fill="none" stroke="white" stroke-width="2" opacity="0.5"/>
    
    <!-- 变体3 -->
    <rect x="40" y="40" width="32" height="32" rx="4" fill="white" opacity="0.7"/>
    <rect x="44" y="44" width="24" height="24" rx="2" fill="none" stroke="white" stroke-width="2" opacity="0.5"/>
  </g>
  
  <!-- 导出箭头 -->
  <g transform="translate(88, 76)">
    <!-- 箭头 -->
    <path d="M 0 0 L 12 0 L 8 -4 M 12 0 L 8 4" stroke="white" stroke-width="3" stroke-linecap="round" stroke-linejoin="round" fill="none"/>
    <!-- 下载框 -->
    <rect x="16" y="-8" width="16" height="16" rx="2" fill="white" opacity="0.9"/>
    <path d="M 20 -4 L 24 -8 L 28 -4" stroke="#18a0fb" stroke-width="2" stroke-linecap="round" stroke-linejoin="round" fill="none"/>
    <line x1="24" y1="-8" x2="24" y2="4" stroke="#18a0fb" stroke-width="2" stroke-linecap="round"/>
  </g>
</svg>

